#usda 1.0
(
    defaultPrim = "Track"
    metersPerUnit = 1
    upAxis = "Z"
)
def Xform "Track"
{
    def Mesh "mesh" (apiSchemas = ["PhysicsCollisionAPI", "PhysicsMeshCollisionAPI"])
    {
        uniform token physics:approximation = "none"
        int[] faceVertexCounts = [3, 3, 3, 3, 3, 3, 3, 3, 3, 3, 3, 3, 3, 3, 3, 3, 3, 3, 3, 3, 3, 3, 3, 3, 3, 3, 3, 3, 3, 3, 3, 3, 3, 3, 3, 3, 3, 3, 3, 3, 3, 3, 3, 3, 3, 3, 3, 3, 3, 3, 3, 3, 3, 3, 3, 3, 3, 3, 3, 3, 3, 3, 3, 3, 3, 3, 3, 3, 3, 3, 3, 3, 3, 3, 3, 3, 3, 3, 3, 3, 3, 3, 3, 3, 3, 3, 3, 3, 3, 3, 3, 3, 3, 3, 3, 3, 3, 3, 3, 3, 3, 3, 3, 3, 3, 3, 3, 3, 3, 3, 3, 3, 3, 3, 3, 3, 3, 3, 3, 3, 3, 3, 3, 3, 3, 3, 3, 3, 3, 3, 3, 3, 3, 3, 3, 3, 3, 3, 3, 3, 3, 3, 3, 3, 3, 3, 3, 3, 3, 3, 3, 3, 3, 3, 3, 3, 3, 3, 3, 3, 3, 3, 3, 3, 3, 3, 3, 3, 3, 3, 3, 3, 3, 3, 3, 3, 3, 3, 3, 3, 3, 3, 3, 3, 3, 3, 3, 3, 3, 3, 3, 3, 3, 3, 3, 3, 3, 3, 3, 3, 3, 3, 3, 3, 3, 3, 3, 3, 3, 3, 3, 3, 3, 3, 3, 3, 3, 3, 3, 3, 3, 3, 3, 3, 3, 3, 3, 3, 3, 3, 3, 3, 3, 3, 3, 3, 3, 3, 3, 3, 3, 3, 3, 3, 3, 3, 3, 3, 3, 3, 3, 3, 3, 3, 3, 3, 3, 3, 3, 3, 3, 3, 3, 3, 3, 3, 3, 3, 3, 3, 3, 3, 3, 3, 3, 3, 3, 3, 3, 3, 3, 3, 3, 3, 3, 3, 3, 3, 3, 3, 3, 3, 3, 3, 3, 3, 3, 3, 3, 3, 3, 3, 3, 3, 3, 3, 3, 3, 3, 3, 3, 3, 3, 3, 3, 3, 3, 3, 3, 3, 3, 3, 3, 3, 3, 3, 3, 3, 3, 3, 3, 3, 3, 3, 3, 3, 3, 3, 3, 3, 3, 3, 3, 3, 3, 3, 3, 3, 3, 3, 3, 3, 3, 3, 3, 3, 3, 3, 3, 3, 3, 3, 3, 3, 3, 3, 3, 3, 3, 3, 3, 3, 3, 3, 3, 3, 3, 3, 3, 3, 3, 3, 3, 3, 3, 3, 3, 3, 3, 3, 3, 3, 3, 3]
        int[] faceVertexIndices = [0, 1, 5, 0, 5, 4, 1, 2, 6, 1, 6, 5, 2, 3, 7, 2, 7, 6, 3, 0, 4, 3, 4, 7, 8, 9, 83, 8, 83, 82, 9, 10, 84, 9, 84, 83, 10, 11, 85, 10, 85, 84, 11, 12, 86, 11, 86, 85, 12, 13, 87, 12, 87, 86, 13, 14, 88, 13, 88, 87, 14, 15, 89, 14, 89, 88, 15, 16, 90, 15, 90, 89, 16, 17, 91, 16, 91, 90, 17, 18, 92, 17, 92, 91, 18, 19, 93, 18, 93, 92, 19, 20, 94, 19, 94, 93, 20, 21, 95, 20, 95, 94, 21, 22, 96, 21, 96, 95, 22, 23, 97, 22, 97, 96, 23, 24, 98, 23, 98, 97, 24, 25, 99, 24, 99, 98, 25, 26, 100, 25, 100, 99, 26, 27, 101, 26, 101, 100, 27, 28, 102, 27, 102, 101, 28, 29, 103, 28, 103, 102, 29, 30, 104, 29, 104, 103, 30, 31, 105, 30, 105, 104, 31, 32, 106, 31, 106, 105, 32, 33, 107, 32, 107, 106, 33, 34, 108, 33, 108, 107, 34, 35, 109, 34, 109, 108, 35, 36, 110, 35, 110, 109, 36, 37, 111, 36, 111, 110, 37, 38, 112, 37, 112, 111, 38, 39, 113, 38, 113, 112, 39, 40, 114, 39, 114, 113, 40, 41, 115, 40, 115, 114, 41, 42, 116, 41, 116, 115, 42, 43, 117, 42, 117, 116, 43, 44, 118, 43, 118, 117, 44, 45, 119, 44, 119, 118, 45, 46, 120, 45, 120, 119, 46, 47, 121, 46, 121, 120, 47, 48, 122, 47, 122, 121, 48, 49, 123, 48, 123, 122, 49, 50, 124, 49, 124, 123, 50, 51, 125, 50, 125, 124, 51, 52, 126, 51, 126, 125, 52, 53, 127, 52, 127, 126, 53, 54, 128, 53, 128, 127, 54, 55, 129, 54, 129, 128, 55, 56, 130, 55, 130, 129, 56, 57, 131, 56, 131, 130, 57, 58, 132, 57, 132, 131, 58, 59, 133, 58, 133, 132, 59, 60, 134, 59, 134, 133, 60, 61, 135, 60, 135, 134, 61, 62, 136, 61, 136, 135, 62, 63, 137, 62, 137, 136, 63, 64, 138, 63, 138, 137, 64, 65, 139, 64, 139, 138, 65, 66, 140, 65, 140, 139, 66, 67, 141, 66, 141, 140, 67, 68, 142, 67, 142, 141, 68, 69, 143, 68, 143, 142, 69, 70, 144, 69, 144, 143, 70, 71, 145, 70, 145, 144, 71, 72, 146, 71, 146, 145, 72, 73, 147, 72, 147, 146, 73, 74, 148, 73, 148, 147, 74, 75, 149, 74, 149, 148, 75, 76, 150, 75, 150, 149, 76, 77, 151, 76, 151, 150, 77, 78, 152, 77, 152, 151, 78, 79, 153, 78, 153, 152, 79, 80, 154, 79, 154, 153, 80, 81, 155, 80, 155, 154, 81, 8, 82, 81, 82, 155, 156, 157, 272, 156, 272, 271, 157, 158, 273, 157, 273, 272, 158, 159, 274, 158, 274, 273, 159, 160, 275, 159, 275, 274, 160, 161, 276, 160, 276, 275, 161, 162, 277, 161, 277, 276, 162, 163, 278, 162, 278, 277, 163, 164, 279, 163, 279, 278, 164, 165, 280, 164, 280, 279, 165, 166, 281, 165, 281, 280, 166, 167, 282, 166, 282, 281, 167, 168, 283, 167, 283, 282, 168, 169, 284, 168, 284, 283, 169, 170, 285, 169, 285, 284, 170, 171, 286, 170, 286, 285, 171, 172, 287, 171, 287, 286, 172, 173, 288, 172, 288, 287, 173, 174, 289, 173, 289, 288, 174, 175, 290, 174, 290, 289, 175, 176, 291, 175, 291, 290, 176, 177, 292, 176, 292, 291, 177, 178, 293, 177, 293, 292, 178, 179, 294, 178, 294, 293, 179, 180, 295, 179, 295, 294, 180, 181, 296, 180, 296, 295, 181, 182, 297, 181, 297, 296, 182, 183, 298, 182, 298, 297, 183, 184, 299, 183, 299, 298, 184, 185, 300, 184, 300, 299, 185, 186, 301, 185, 301, 300, 186, 187, 302, 186, 302, 301, 187, 188, 303, 187, 303, 302, 188, 189, 304, 188, 304, 303, 189, 190, 305, 189, 305, 304, 190, 191, 306, 190, 306, 305, 191, 192, 307, 191, 307, 306, 192, 193, 308, 192, 308, 307, 193, 194, 309, 193, 309, 308, 194, 195, 310, 194, 310, 309, 195, 196, 311, 195, 311, 310, 196, 197, 312, 196, 312, 311, 197, 198, 313, 197, 313, 312, 198, 199, 314, 198, 314, 313, 199, 200, 315, 199, 315, 314, 200, 201, 316, 200, 316, 315, 201, 202, 317, 201, 317, 316, 202, 203, 318, 202, 318, 317, 203, 204, 319, 203, 319, 318, 204, 205, 320, 204, 320, 319, 205, 206, 321, 205, 321, 320, 206, 207, 322, 206, 322, 321, 207, 208, 323, 207, 323, 322, 208, 209, 324, 208, 324, 323, 209, 210, 325, 209, 325, 324, 210, 211, 326, 210, 326, 325, 211, 212, 327, 211, 327, 326, 212, 213, 328, 212, 328, 327, 213, 214, 329, 213, 329, 328, 214, 215, 330, 214, 330, 329, 215, 216, 331, 215, 331, 330, 216, 217, 332, 216, 332, 331, 217, 218, 333, 217, 333, 332, 218, 219, 334, 218, 334, 333, 219, 220, 335, 219, 335, 334, 220, 221, 336, 220, 336, 335, 221, 222, 337, 221, 337, 336, 222, 223, 338, 222, 338, 337, 223, 224, 339, 223, 339, 338, 224, 225, 340, 224, 340, 339, 225, 226, 341, 225, 341, 340, 226, 227, 342, 226, 342, 341, 227, 228, 343, 227, 343, 342, 228, 229, 344, 228, 344, 343, 229, 230, 345, 229, 345, 344, 230, 231, 346, 230, 346, 345, 231, 232, 347, 231, 347, 346, 232, 233, 348, 232, 348, 347, 233, 234, 349, 233, 349, 348, 234, 235, 350, 234, 350, 349, 235, 236, 351, 235, 351, 350, 236, 237, 352, 236, 352, 351, 237, 238, 353, 237, 353, 352, 238, 239, 354, 238, 354, 353, 239, 240, 355, 239, 355, 354, 240, 241, 356, 240, 356, 355, 241, 242, 357, 241, 357, 356, 242, 243, 358, 242, 358, 357, 243, 244, 359, 243, 359, 358, 244, 245, 360, 244, 360, 359, 245, 246, 361, 245, 361, 360, 246, 247, 362, 246, 362, 361, 247, 248, 363, 247, 363, 362, 248, 249, 364, 248, 364, 363, 249, 250, 365, 249, 365, 364, 250, 251, 366, 250, 366, 365, 251, 252, 367, 251, 367, 366, 252, 253, 368, 252, 368, 367, 253, 254, 369, 253, 369, 368, 254, 255, 370, 254, 370, 369, 255, 256, 371, 255, 371, 370, 256, 257, 372, 256, 372, 371, 257, 258, 373, 257, 373, 372, 258, 259, 374, 258, 374, 373, 259, 260, 375, 259, 375, 374, 260, 261, 376, 260, 376, 375, 261, 262, 377, 261, 377, 376, 262, 263, 378, 262, 378, 377, 263, 264, 379, 263, 379, 378, 264, 265, 380, 264, 380, 379, 265, 266, 381, 265, 381, 380, 266, 267, 382, 266, 382, 381, 267, 268, 383, 267, 383, 382, 268, 269, 384, 268, 384, 383, 269, 270, 385, 269, 385, 384, 270, 156, 271, 270, 271, 385, 386, 387, 391, 386, 391, 390, 387, 388, 392, 387, 392, 391, 388, 389, 393, 388, 393, 392, 389, 386, 390, 389, 390, 393]
        point3f[] points = [(1.0390, 15.0150, 0.0000), (1.0610, 15.0370, 0.0000), (1.0830, 14.9930, 0.0000), (1.0610, 14.9710, 0.0000), (1.0390, 15.0150, 0.3000), (1.0610, 15.0370, 0.3000), (1.0830, 14.9930, 0.3000), (1.0610, 14.9710, 0.3000), (7.0890, 24.7610, 0.0000), (6.6930, 24.7830, 0.0000), (6.5170, 24.6730, 0.0000), (6.3630, 24.6290, 0.0000), (5.9450, 24.3430, 0.0000), (5.6810, 24.1010, 0.0000), (5.5710, 23.9470, 0.0000), (5.3070, 23.7050, 0.0000), (4.8230, 23.0230, 0.0000), (4.0310, 22.0990, 0.0000), (3.5030, 21.4170, 0.0000), (2.8870, 20.7570, 0.0000), (2.0290, 19.9430, 0.0000), (1.9850, 19.9430, 0.0000), (1.6550, 19.6790, 0.0000), (1.5450, 19.6350, 0.0000), (1.4790, 19.5470, 0.0000), (1.0830, 19.2390, 0.0000), (-0.4350, 18.1610, 0.0000), (-1.1830, 17.5450, 0.0000), (-1.4250, 17.3030, 0.0000), (-1.8870, 16.9950, 0.0000), (-2.1510, 16.7530, 0.0000), (-2.6350, 16.4010, 0.0000), (-2.9870, 16.2030, 0.0000), (-3.3830, 16.3570, 0.0000), (-3.7570, 16.3570, 0.0000), (-3.8450, 16.2690, 0.0000), (-3.8450, 16.0050, 0.0000), (-3.8890, 15.9610, 0.0000), (-3.8670, 15.1690, 0.0000), (-3.7790, 14.7510, 0.0000), (-3.5810, 14.3770, 0.0000), (-3.3610, 14.2230, 0.0000), (-2.8330, 14.2450, 0.0000), (-2.5910, 14.2890, 0.0000), (-2.1510, 14.5750, 0.0000), (-1.9750, 14.8170, 0.0000), (-1.8870, 14.8830, 0.0000), (-1.7770, 15.2350, 0.0000), (-1.7990, 15.6310, 0.0000), (-1.9310, 16.1590, 0.0000), (-1.5570, 16.4450, 0.0000), (-1.1610, 16.6870, 0.0000), (-0.5010, 17.2590, 0.0000), (0.1370, 17.7430, 0.0000), (1.3250, 18.5570, 0.0000), (1.8530, 18.9530, 0.0000), (2.1170, 19.1950, 0.0000), (2.2050, 19.1950, 0.0000), (2.3150, 19.3270, 0.0000), (2.4470, 19.3930, 0.0000), (2.6670, 19.6130, 0.0000), (2.7110, 19.6130, 0.0000), (2.8870, 19.8110, 0.0000), (3.1510, 20.0310, 0.0000), (4.2070, 21.1750, 0.0000), (4.4270, 21.5050, 0.0000), (4.9330, 22.0990, 0.0000), (5.0210, 22.2530, 0.0000), (5.2410, 22.4730, 0.0000), (5.2410, 22.5390, 0.0000), (5.4610, 22.8030, 0.0000), (5.6810, 23.1550, 0.0000), (5.8570, 23.3310, 0.0000), (5.9230, 23.4630, 0.0000), (6.3630, 23.9250, 0.0000), (6.4290, 23.9470, 0.0000), (6.6490, 24.1450, 0.0000), (6.7370, 24.1450, 0.0000), (6.8470, 24.2550, 0.0000), (7.0010, 24.2990, 0.0000), (7.1110, 24.4090, 0.0000), (7.1330, 24.6730, 0.0000), (7.0890, 24.7610, 0.3000), (6.6930, 24.7830, 0.3000), (6.5170, 24.6730, 0.3000), (6.3630, 24.6290, 0.3000), (5.9450, 24.3430, 0.3000), (5.6810, 24.1010, 0.3000), (5.5710, 23.9470, 0.3000), (5.3070, 23.7050, 0.3000), (4.8230, 23.0230, 0.3000), (4.0310, 22.0990, 0.3000), (3.5030, 21.4170, 0.3000), (2.8870, 20.7570, 0.3000), (2.0290, 19.9430, 0.3000), (1.9850, 19.9430, 0.3000), (1.6550, 19.6790, 0.3000), (1.5450, 19.6350, 0.3000), (1.4790, 19.5470, 0.3000), (1.0830, 19.2390, 0.3000), (-0.4350, 18.1610, 0.3000), (-1.1830, 17.5450, 0.3000), (-1.4250, 17.3030, 0.3000), (-1.8870, 16.9950, 0.3000), (-2.1510, 16.7530, 0.3000), (-2.6350, 16.4010, 0.3000), (-2.9870, 16.2030, 0.3000), (-3.3830, 16.3570, 0.3000), (-3.7570, 16.3570, 0.3000), (-3.8450, 16.2690, 0.3000), (-3.8450, 16.0050, 0.3000), (-3.8890, 15.9610, 0.3000), (-3.8670, 15.1690, 0.3000), (-3.7790, 14.7510, 0.3000), (-3.5810, 14.3770, 0.3000), (-3.3610, 14.2230, 0.3000), (-2.8330, 14.2450, 0.3000), (-2.5910, 14.2890, 0.3000), (-2.1510, 14.5750, 0.3000), (-1.9750, 14.8170, 0.3000), (-1.8870, 14.8830, 0.3000), (-1.7770, 15.2350, 0.3000), (-1.7990, 15.6310, 0.3000), (-1.9310, 16.1590, 0.3000), (-1.5570, 16.4450, 0.3000), (-1.1610, 16.6870, 0.3000), (-0.5010, 17.2590, 0.3000), (0.1370, 17.7430, 0.3000), (1.3250, 18.5570, 0.3000), (1.8530, 18.9530, 0.3000), (2.1170, 19.1950, 0.3000), (2.2050, 19.1950, 0.3000), (2.3150, 19.3270, 0.3000), (2.4470, 19.3930, 0.3000), (2.6670, 19.6130, 0.3000), (2.7110, 19.6130, 0.3000), (2.8870, 19.8110, 0.3000), (3.1510, 20.0310, 0.3000), (4.2070, 21.1750, 0.3000), (4.4270, 21.5050, 0.3000), (4.9330, 22.0990, 0.3000), (5.0210, 22.2530, 0.3000), (5.2410, 22.4730, 0.3000), (5.2410, 22.5390, 0.3000), (5.4610, 22.8030, 0.3000), (5.6810, 23.1550, 0.3000), (5.8570, 23.3310, 0.3000), (5.9230, 23.4630, 0.3000), (6.3630, 23.9250, 0.3000), (6.4290, 23.9470, 0.3000), (6.6490, 24.1450, 0.3000), (6.7370, 24.1450, 0.3000), (6.8470, 24.2550, 0.3000), (7.0010, 24.2990, 0.3000), (7.1110, 24.4090, 0.3000), (7.1330, 24.6730, 0.3000), (6.3410, 28.2590, 0.0000), (7.5070, 27.5110, 0.0000), (7.9470, 27.1590, 0.0000), (8.1670, 26.9170, 0.0000), (8.4530, 26.6750, 0.0000), (8.6070, 26.4550, 0.0000), (8.7830, 26.2790, 0.0000), (8.7830, 26.2350, 0.0000), (8.9150, 26.0810, 0.0000), (9.0030, 25.9050, 0.0000), (9.1350, 25.8170, 0.0000), (9.1790, 25.6850, 0.0000), (9.2670, 25.6190, 0.0000), (9.2890, 25.5090, 0.0000), (9.3550, 25.4650, 0.0000), (9.3990, 25.3110, 0.0000), (9.4870, 25.1790, 0.0000), (9.4870, 24.8710, 0.0000), (9.0690, 24.3650, 0.0000), (7.0670, 22.3850, 0.0000), (6.9130, 22.0990, 0.0000), (6.8030, 21.3510, 0.0000), (6.5830, 21.0210, 0.0000), (6.0990, 20.5370, 0.0000), (6.0110, 20.4930, 0.0000), (5.6810, 20.1630, 0.0000), (5.4390, 19.9870, 0.0000), (4.4930, 18.9310, 0.0000), (4.1190, 18.6230, 0.0000), (3.4810, 18.3150, 0.0000), (3.1510, 18.0730, 0.0000), (2.9750, 17.8530, 0.0000), (2.7330, 17.4350, 0.0000), (2.4910, 17.1270, 0.0000), (1.9190, 16.5770, 0.0000), (0.9290, 15.7410, 0.0000), (0.8630, 15.6090, 0.0000), (0.7970, 15.6310, 0.0000), (0.4670, 15.9390, 0.0000), (-0.0830, 15.9170, 0.0000), (-0.2590, 15.7410, 0.0000), (-0.2370, 15.4770, 0.0000), (-0.1710, 15.4110, 0.0000), (-0.0170, 15.3890, 0.0000), (0.2470, 15.2350, 0.0000), (0.4010, 15.0810, 0.0000), (0.3790, 14.9930, 0.0000), (-0.2150, 14.4430, 0.0000), (-0.4350, 14.3110, 0.0000), (-0.5450, 14.3110, 0.0000), (-0.8530, 14.1130, 0.0000), (-1.0070, 13.9590, 0.0000), (-1.2490, 13.6510, 0.0000), (-1.4690, 13.2550, 0.0000), (-1.7990, 12.7710, 0.0000), (-1.8870, 12.7050, 0.0000), (-2.3050, 12.1330, 0.0000), (-3.0310, 11.2970, 0.0000), (-3.1410, 11.2090, 0.0000), (-3.7570, 11.7810, 0.0000), (-4.2850, 12.3750, 0.0000), (-5.0330, 13.0570, 0.0000), (-5.2970, 13.3870, 0.0000), (-5.6490, 13.7390, 0.0000), (-5.6930, 13.7390, 0.0000), (-5.9570, 13.9590, 0.0000), (-6.0230, 14.0690, 0.0000), (-6.2430, 14.2450, 0.0000), (-6.2430, 14.3550, 0.0000), (-6.3090, 14.3990, 0.0000), (-6.4190, 14.5750, 0.0000), (-6.4190, 14.6850, 0.0000), (-6.5510, 14.9710, 0.0000), (-6.5730, 15.2130, 0.0000), (-6.6390, 15.3010, 0.0000), (-6.5950, 15.4110, 0.0000), (-6.3750, 15.6530, 0.0000), (-5.4730, 16.4670, 0.0000), (-5.1870, 16.6650, 0.0000), (-2.5250, 19.3710, 0.0000), (-2.0630, 19.6790, 0.0000), (-1.7110, 19.8550, 0.0000), (-1.3370, 19.9870, 0.0000), (-0.8530, 20.0750, 0.0000), (-0.3910, 20.2730, 0.0000), (-0.0390, 20.6250, 0.0000), (0.0270, 20.6470, 0.0000), (0.0490, 20.7130, 0.0000), (0.3130, 20.9770, 0.0000), (0.4010, 21.0210, 0.0000), (0.4890, 21.1530, 0.0000), (0.7970, 21.4170, 0.0000), (0.8190, 21.4830, 0.0000), (1.0170, 21.6810, 0.0000), (1.1490, 21.7470, 0.0000), (1.1710, 21.8130, 0.0000), (1.5010, 22.1430, 0.0000), (1.5670, 22.1650, 0.0000), (1.5670, 22.2090, 0.0000), (1.8750, 22.4950, 0.0000), (1.8750, 22.5390, 0.0000), (2.5570, 23.2210, 0.0000), (2.5570, 23.2650, 0.0000), (2.7990, 23.5510, 0.0000), (2.9090, 23.8150, 0.0000), (2.9090, 24.2990, 0.0000), (2.8650, 24.4750, 0.0000), (2.7550, 24.6950, 0.0000), (3.5030, 25.3330, 0.0000), (3.8550, 25.8610, 0.0000), (4.1850, 26.4990, 0.0000), (4.5370, 26.9830, 0.0000), (5.4830, 27.9510, 0.0000), (5.9670, 28.3470, 0.0000), (6.0550, 28.3910, 0.0000), (6.3410, 28.2590, 0.3000), (7.5070, 27.5110, 0.3000), (7.9470, 27.1590, 0.3000), (8.1670, 26.9170, 0.3000), (8.4530, 26.6750, 0.3000), (8.6070, 26.4550, 0.3000), (8.7830, 26.2790, 0.3000), (8.7830, 26.2350, 0.3000), (8.9150, 26.0810, 0.3000), (9.0030, 25.9050, 0.3000), (9.1350, 25.8170, 0.3000), (9.1790, 25.6850, 0.3000), (9.2670, 25.6190, 0.3000), (9.2890, 25.5090, 0.3000), (9.3550, 25.4650, 0.3000), (9.3990, 25.3110, 0.3000), (9.4870, 25.1790, 0.3000), (9.4870, 24.8710, 0.3000), (9.0690, 24.3650, 0.3000), (7.0670, 22.3850, 0.3000), (6.9130, 22.0990, 0.3000), (6.8030, 21.3510, 0.3000), (6.5830, 21.0210, 0.3000), (6.0990, 20.5370, 0.3000), (6.0110, 20.4930, 0.3000), (5.6810, 20.1630, 0.3000), (5.4390, 19.9870, 0.3000), (4.4930, 18.9310, 0.3000), (4.1190, 18.6230, 0.3000), (3.4810, 18.3150, 0.3000), (3.1510, 18.0730, 0.3000), (2.9750, 17.8530, 0.3000), (2.7330, 17.4350, 0.3000), (2.4910, 17.1270, 0.3000), (1.9190, 16.5770, 0.3000), (0.9290, 15.7410, 0.3000), (0.8630, 15.6090, 0.3000), (0.7970, 15.6310, 0.3000), (0.4670, 15.9390, 0.3000), (-0.0830, 15.9170, 0.3000), (-0.2590, 15.7410, 0.3000), (-0.2370, 15.4770, 0.3000), (-0.1710, 15.4110, 0.3000), (-0.0170, 15.3890, 0.3000), (0.2470, 15.2350, 0.3000), (0.4010, 15.0810, 0.3000), (0.3790, 14.9930, 0.3000), (-0.2150, 14.4430, 0.3000), (-0.4350, 14.3110, 0.3000), (-0.5450, 14.3110, 0.3000), (-0.8530, 14.1130, 0.3000), (-1.0070, 13.9590, 0.3000), (-1.2490, 13.6510, 0.3000), (-1.4690, 13.2550, 0.3000), (-1.7990, 12.7710, 0.3000), (-1.8870, 12.7050, 0.3000), (-2.3050, 12.1330, 0.3000), (-3.0310, 11.2970, 0.3000), (-3.1410, 11.2090, 0.3000), (-3.7570, 11.7810, 0.3000), (-4.2850, 12.3750, 0.3000), (-5.0330, 13.0570, 0.3000), (-5.2970, 13.3870, 0.3000), (-5.6490, 13.7390, 0.3000), (-5.6930, 13.7390, 0.3000), (-5.9570, 13.9590, 0.3000), (-6.0230, 14.0690, 0.3000), (-6.2430, 14.2450, 0.3000), (-6.2430, 14.3550, 0.3000), (-6.3090, 14.3990, 0.3000), (-6.4190, 14.5750, 0.3000), (-6.4190, 14.6850, 0.3000), (-6.5510, 14.9710, 0.3000), (-6.5730, 15.2130, 0.3000), (-6.6390, 15.3010, 0.3000), (-6.5950, 15.4110, 0.3000), (-6.3750, 15.6530, 0.3000), (-5.4730, 16.4670, 0.3000), (-5.1870, 16.6650, 0.3000), (-2.5250, 19.3710, 0.3000), (-2.0630, 19.6790, 0.3000), (-1.7110, 19.8550, 0.3000), (-1.3370, 19.9870, 0.3000), (-0.8530, 20.0750, 0.3000), (-0.3910, 20.2730, 0.3000), (-0.0390, 20.6250, 0.3000), (0.0270, 20.6470, 0.3000), (0.0490, 20.7130, 0.3000), (0.3130, 20.9770, 0.3000), (0.4010, 21.0210, 0.3000), (0.4890, 21.1530, 0.3000), (0.7970, 21.4170, 0.3000), (0.8190, 21.4830, 0.3000), (1.0170, 21.6810, 0.3000), (1.1490, 21.7470, 0.3000), (1.1710, 21.8130, 0.3000), (1.5010, 22.1430, 0.3000), (1.5670, 22.1650, 0.3000), (1.5670, 22.2090, 0.3000), (1.8750, 22.4950, 0.3000), (1.8750, 22.5390, 0.3000), (2.5570, 23.2210, 0.3000), (2.5570, 23.2650, 0.3000), (2.7990, 23.5510, 0.3000), (2.9090, 23.8150, 0.3000), (2.9090, 24.2990, 0.3000), (2.8650, 24.4750, 0.3000), (2.7550, 24.6950, 0.3000), (3.5030, 25.3330, 0.3000), (3.8550, 25.8610, 0.3000), (4.1850, 26.4990, 0.3000), (4.5370, 26.9830, 0.3000), (5.4830, 27.9510, 0.3000), (5.9670, 28.3470, 0.3000), (6.0550, 28.3910, 0.3000), (-6.8810, 28.5670, 0.0000), (-6.8810, 10.9890, 0.0000), (10.1690, 10.9890, 0.0000), (10.1690, 28.5670, 0.0000), (-6.8810, 28.5670, 0.3000), (-6.8810, 10.9890, 0.3000), (10.1690, 10.9890, 0.3000), (10.1690, 28.5670, 0.3000)]
        float3[] extent = [(-6.8810, 10.9890, 0.0000), (10.1690, 28.5670, 0.3000)]
        uniform bool doubleSided = 1
        color3f[] primvars:displayColor = [(0.25, 0.25, 0.25)]
        uniform token subdivisionScheme = "none"
    }
}
